<?xml version="1.0" standalone="no"?>
<!DOCTYPE svg PUBLIC "-//W3C//DTD SVG 20010904//EN"
 "http://www.w3.org/TR/2001/REC-SVG-20010904/DTD/svg10.dtd">
<svg version="1.0" xmlns="http://www.w3.org/2000/svg"
 width="480.000000pt" height="487.000000pt" viewBox="0 0 480.000000 487.000000"
 preserveAspectRatio="xMidYMid meet">

<g transform="translate(0.000000,487.000000) scale(0.100000,-0.100000)"
fill="#000000" stroke="none">
<path d="M2134 4848 c-28 -9 -32 -15 -37 -57 -3 -25 -11 -85 -18 -133 l-12
-86 -56 -7 c-146 -17 -320 -58 -408 -97 l-47 -21 -50 54 c-28 30 -68 73 -89
97 -36 41 -40 43 -70 33 -78 -26 -383 -208 -393 -235 -3 -7 16 -65 41 -130 25
-65 45 -121 43 -125 -2 -5 -37 -36 -79 -70 -104 -83 -240 -217 -273 -269 l-27
-43 -107 56 -107 56 -36 -40 c-48 -53 -158 -220 -198 -300 -59 -116 -63 -100
49 -191 55 -45 100 -86 100 -91 0 -6 -13 -43 -29 -82 -50 -123 -82 -243 -96
-359 l-7 -57 -52 -10 c-53 -11 -167 -31 -173 -31 -4 0 -4 -520 0 -520 1 0 54
-9 117 -20 63 -11 116 -20 118 -20 1 0 2 -21 2 -47 0 -62 40 -234 80 -348 51
-142 54 -130 -56 -210 -52 -38 -98 -73 -100 -77 -9 -14 179 -350 233 -417 l20
-24 118 47 118 47 56 -63 c69 -79 229 -239 298 -298 l53 -45 -50 -100 c-27
-55 -49 -105 -50 -112 0 -16 59 -61 170 -128 91 -56 229 -125 248 -125 5 0 44
41 88 90 93 107 75 105 269 36 86 -30 164 -50 230 -58 l100 -14 19 -121 c17
-105 22 -122 40 -128 47 -14 387 -18 441 -5 61 15 58 10 76 147 15 109 14 108
121 123 106 15 283 59 357 88 l64 25 31 -34 c17 -19 54 -61 82 -93 l52 -59 78
39 c87 44 306 173 342 201 l22 18 -45 105 c-24 58 -45 110 -45 117 0 6 35 42
78 79 42 37 131 124 198 192 l120 124 98 -46 c53 -25 104 -46 111 -46 29 0
265 387 265 433 0 9 -37 43 -82 76 -46 32 -91 66 -101 73 -18 14 -17 21 32
174 49 154 86 293 93 344 3 23 9 25 113 40 l110 15 7 45 c10 66 9 458 -1 464
-4 3 -41 10 -82 16 -148 21 -138 17 -144 58 -17 99 -59 259 -97 366 l-42 119
45 39 c24 21 68 55 96 75 29 21 53 45 53 54 0 37 -168 339 -226 408 l-32 36
-103 -44 c-57 -24 -111 -44 -121 -45 -9 0 -67 54 -135 128 -106 117 -193 198
-237 223 -14 8 -13 16 10 73 15 36 37 93 50 128 l24 63 -97 63 c-130 83 -314
186 -335 186 -10 0 -52 -43 -94 -95 -55 -68 -82 -95 -98 -95 -13 0 -56 11 -97
25 -111 38 -339 95 -380 95 l-37 0 -11 98 c-23 188 -14 169 -85 181 -77 14
-390 13 -432 -1z m213 -118 c16 0 39 7 51 16 13 9 26 14 29 11 3 -3 -10 -15
-28 -26 -19 -12 -28 -21 -21 -21 27 0 62 -48 62 -85 0 -38 -35 -85 -65 -85 -9
0 -15 -9 -15 -25 0 -21 5 -25 33 -27 l32 -1 -32 -4 c-30 -4 -33 -7 -34 -41
l-2 -37 -6 35 c-5 29 -11 36 -36 41 l-30 6 30 4 c40 5 48 44 11 53 -61 15 -78
103 -28 147 l29 26 -29 12 c-15 7 -28 17 -28 23 0 6 11 3 25 -6 13 -9 37 -16
52 -16z m-1068 -269 c33 -33 45 -98 28 -143 l-15 -38 39 0 c38 0 39 1 39 36 0
21 4 33 10 29 6 -3 10 -19 10 -36 0 -27 2 -29 39 -29 22 0 42 5 44 13 3 6 6 1
6 -13 1 -24 -1 -25 -45 -21 l-47 3 6 -41 c5 -38 3 -41 -19 -41 -13 0 -24 5
-24 10 0 6 5 10 10 10 6 0 10 14 10 30 l0 30 -80 0 c-47 0 -80 4 -80 10 0 6
11 10 25 10 55 0 84 77 54 144 -12 26 -61 52 -78 42 -5 -4 -12 -2 -16 4 -12
19 64 11 84 -9z m2253 -12 c26 -14 51 -74 42 -102 -9 -31 -44 -67 -66 -67 -13
0 -18 -7 -18 -26 0 -21 4 -25 20 -21 11 3 23 1 26 -4 3 -5 -6 -9 -20 -9 -23 0
-26 -4 -26 -35 0 -19 -4 -35 -10 -35 -5 0 -10 16 -10 35 0 31 -3 35 -25 35
-14 0 -25 4 -25 8 0 5 10 8 23 8 16 -1 23 5 25 22 2 15 -2 22 -13 22 -9 0 -27
11 -40 25 -56 56 -18 155 60 155 20 0 45 -5 57 -11z m-837 -128 c332 -62 628
-203 891 -424 205 -172 371 -389 489 -642 173 -367 223 -772 144 -1175 -43
-219 -149 -481 -269 -664 -249 -380 -635 -668 -1059 -791 -198 -58 -289 -70
-536 -70 -233 0 -277 4 -450 46 -404 99 -780 338 -1034 659 -267 336 -399 692
-417 1120 -25 585 229 1155 685 1534 265 220 608 372 951 420 151 22 459 15
605 -13z m1521 -664 c-14 -10 -16 -25 -14 -81 l3 -68 27 21 c14 12 38 21 52
21 21 0 30 -10 53 -57 20 -41 34 -59 50 -61 14 -2 23 3 25 15 3 16 5 16 16 -4
12 -22 11 -23 -26 -23 -45 0 -64 17 -81 72 -18 57 -49 59 -98 6 -14 -14 -23
-40 -26 -68 -2 -25 -4 13 -5 84 -2 110 -5 131 -19 142 -16 12 -14 13 21 14 35
0 38 -2 22 -13z m-3708 -54 c-21 -23 -24 -32 -16 -50 38 -82 -82 -154 -147
-88 -54 54 -16 145 60 145 20 0 45 -5 55 -10 16 -8 22 -6 32 10 7 11 19 20 27
20 10 0 7 -9 -11 -27z m3887 -1105 c-16 -53 -16 -81 0 -123 21 -57 63 -87 118
-87 36 1 47 6 80 43 34 38 37 47 37 100 0 33 -4 59 -10 59 -5 0 -10 7 -10 15
0 8 6 15 14 15 17 0 32 -95 21 -131 -31 -102 -129 -148 -205 -96 -50 33 -70
80 -70 159 0 56 3 68 16 68 12 0 15 -6 9 -22z m-4245 -87 c54 -11 101 3 137
43 l33 36 0 -30 c0 -110 -112 -184 -198 -131 -43 27 -72 77 -72 123 l0 38 33
-36 c19 -21 46 -38 67 -43z m4171 -954 c19 -12 44 -43 57 -69 20 -40 22 -56
17 -102 -5 -40 -12 -56 -22 -56 -11 0 -13 5 -7 18 14 32 16 103 4 133 -31 73
-126 104 -182 59 -52 -40 -78 -151 -43 -180 19 -16 19 -30 1 -30 -19 0 -29 34
-29 91 1 121 114 196 204 136z m-3841 -45 c0 -32 5 -41 27 -51 24 -11 29 -9
60 20 42 41 44 26 2 -17 -26 -27 -29 -35 -20 -52 8 -16 23 -22 59 -25 l47 -3
-51 -2 c-46 -2 -53 -5 -58 -27 -3 -13 -20 -32 -36 -40 -26 -13 -30 -21 -30
-55 0 -22 -4 -40 -10 -40 -5 0 -10 17 -10 38 0 32 -5 41 -25 50 -14 7 -34 25
-43 42 -14 25 -24 30 -57 32 l-40 1 41 4 c33 3 44 9 53 31 11 24 10 28 -13 45
-14 10 -26 26 -26 35 0 12 7 9 29 -12 22 -21 34 -26 55 -20 22 5 26 11 26 45
0 21 5 39 10 39 6 0 10 -17 10 -38z"/>
<path d="M3444 4438 c-24 -11 -44 -48 -44 -79 0 -31 44 -69 80 -69 19 0 40 9
55 25 65 64 -8 163 -91 123z"/>
<path d="M2293 4075 c39 -117 43 -125 67 -125 24 0 29 8 68 119 23 66 42 122
42 125 0 3 -11 6 -24 6 -25 0 -31 -11 -62 -112 -10 -32 -21 -58 -25 -58 -4 0
-10 15 -14 33 -4 17 -13 56 -22 85 -13 47 -17 52 -43 52 l-28 0 41 -125z"/>
<path d="M2144 4153 c3 -21 8 -65 11 -98 11 -106 14 -115 42 -115 21 0 24 3
19 28 -2 15 -7 59 -11 97 -10 114 -13 125 -42 125 -23 0 -24 -3 -19 -37z"/>
<path d="M2521 4103 c-7 -49 -15 -104 -18 -124 l-5 -36 76 -12 c105 -15 116
-15 116 8 0 20 -6 22 -93 37 -36 6 -38 9 -35 38 2 17 8 30 13 30 113 -17 115
-17 115 4 0 15 -9 22 -30 26 -16 3 -44 9 -61 12 -22 4 -29 10 -25 21 3 8 6 19
6 25 0 6 23 7 64 3 55 -6 64 -5 70 10 3 10 5 19 4 20 -5 4 -146 25 -165 25
-16 0 -21 -14 -32 -87z"/>
<path d="M2021 4171 c-15 -9 -13 -23 16 -141 4 -20 -9 -11 -65 44 -61 60 -73
68 -97 62 -16 -4 -25 -12 -22 -20 3 -7 16 -59 28 -116 23 -99 34 -118 63 -107
11 5 11 18 -5 83 -10 43 -17 79 -16 81 2 1 34 -28 71 -66 54 -55 72 -67 92
-63 13 2 24 7 24 11 -2 30 -57 235 -65 238 -6 1 -16 -1 -24 -6z"/>
<path d="M2766 4024 c-21 -64 -36 -117 -34 -119 2 -1 13 -5 24 -9 18 -6 23 0
34 39 14 50 16 51 66 30 38 -16 38 -18 18 -87 -4 -13 3 -21 21 -28 14 -5 27
-10 28 -10 3 0 9 59 11 95 0 16 11 39 24 52 27 27 29 74 4 96 -18 16 -123 57
-147 57 -7 0 -29 -52 -49 -116z m147 41 c21 -9 22 -38 3 -54 -11 -10 -24 -9
-55 0 -45 13 -46 16 -30 53 12 24 23 25 82 1z"/>
<path d="M1728 4093 c-10 -2 -18 -6 -18 -8 0 -2 16 -40 35 -85 40 -95 43 -115
14 -130 -43 -24 -61 -10 -100 78 -20 45 -39 85 -42 88 -3 3 -14 1 -25 -5 -20
-11 -19 -13 15 -93 19 -46 44 -93 55 -105 26 -27 66 -30 111 -6 41 21 56 41
57 76 0 29 -67 198 -79 196 -3 -1 -14 -3 -23 -6z"/>
<path d="M3066 4008 c-44 -41 -42 -61 13 -122 64 -71 58 -104 -14 -76 -17 6
-27 20 -31 39 -10 50 -54 53 -54 4 0 -16 13 -38 36 -59 30 -29 43 -34 84 -34
40 0 50 4 64 25 26 40 20 66 -30 116 -50 50 -54 79 -11 79 29 0 47 -18 47 -47
0 -13 4 -23 9 -23 5 0 16 -3 25 -6 13 -5 16 1 16 28 0 38 -26 70 -73 87 -40
16 -53 14 -81 -11z"/>
<path d="M3245 3809 c-63 -93 -67 -102 -51 -117 20 -20 23 -18 104 102 56 82
59 91 44 102 -9 8 -20 14 -23 14 -3 0 -36 -45 -74 -101z"/>
<path d="M1281 3836 c-8 -10 5 -36 60 -114 l71 -102 59 42 c76 53 85 64 69 83
-10 12 -18 10 -57 -20 -25 -19 -49 -35 -52 -35 -3 1 -31 36 -61 80 -56 81 -69
90 -89 66z"/>
<path d="M3396 3833 c-4 -10 3 -26 18 -42 l25 -26 -41 -45 c-22 -25 -51 -60
-65 -78 -25 -31 -25 -34 -9 -50 18 -18 11 -25 129 113 l25 30 26 -24 c21 -20
28 -22 41 -11 8 7 15 15 15 19 0 7 -145 131 -153 131 -3 0 -8 -7 -11 -17z"/>
<path d="M2210 3833 c-329 -33 -617 -170 -856 -407 -206 -204 -334 -444 -391
-733 -23 -121 -23 -374 0 -503 52 -282 183 -529 391 -736 203 -204 422 -322
714 -386 139 -31 405 -31 544 0 287 63 509 182 709 382 58 58 133 144 167 192
109 156 194 358 229 548 23 127 23 372 0 496 -86 468 -406 865 -843 1046 -201
83 -458 122 -664 101z m405 -73 c278 -62 484 -175 680 -374 200 -202 310 -408
371 -696 32 -150 24 -421 -16 -571 l-11 -39 -254 0 -255 0 -88 -46 -87 -46 -3
341 c-1 188 -6 341 -11 341 -5 0 -26 -7 -46 -16 -28 -11 -40 -12 -45 -4 -4 6
-10 60 -14 118 -4 59 -15 206 -25 327 -12 146 -15 224 -8 233 16 20 82 14 133
-13 65 -35 114 -33 157 5 19 16 40 44 48 61 11 28 10 33 -6 45 -17 12 -22 11
-46 -12 -16 -15 -43 -28 -65 -31 -33 -4 -45 0 -78 26 -47 37 -104 56 -142 47
-15 -4 -42 -22 -61 -41 -34 -34 -42 -69 -23 -106 8 -13 8 -62 1 -157 -5 -75
-15 -235 -22 -356 l-13 -219 -30 -12 c-79 -32 -76 -34 -76 39 0 36 -3 66 -8
66 -4 0 -91 -33 -192 -74 l-185 -74 -3 74 c-2 41 -7 74 -13 74 -6 0 -98 -37
-205 -82 l-194 -83 0 -263 0 -263 -22 7 c-13 3 -63 24 -113 45 -49 22 -100 39
-112 39 -27 0 -16 -47 -108 445 -41 220 -77 408 -79 417 -3 14 2 13 32 -7 25
-17 50 -25 79 -25 40 0 44 3 63 40 11 21 20 48 20 58 0 10 11 24 25 30 31 14
32 39 3 53 -16 7 -29 30 -43 72 -17 54 -24 62 -47 65 -39 5 -104 -33 -137 -79
l-29 -40 -7 56 c-6 48 -10 55 -29 55 -21 0 -24 -11 -59 -237 -20 -131 -59
-382 -87 -558 -27 -176 -50 -326 -50 -332 0 -7 -8 -13 -18 -13 -20 0 -30 25
-53 135 -20 92 -17 392 4 488 60 273 171 485 350 673 221 231 500 374 812 414
107 14 335 3 440 -20z m-1170 -597 c-26 -60 -28 -111 -8 -172 16 -50 17 -61 5
-61 -53 0 -117 87 -102 139 13 47 30 71 63 91 40 25 51 25 42 3z m61 -41 c5
-25 3 -32 -9 -32 -8 0 -23 -3 -32 -7 -18 -6 -17 2 7 66 11 30 25 18 34 -27z
m1279 -187 c8 -121 18 -241 21 -266 l5 -45 -40 -16 -41 -16 0 49 c0 28 4 116
10 197 5 81 13 190 16 242 4 52 8 91 10 85 1 -5 10 -109 19 -230z m-1511 66
c-15 -15 -16 -14 -10 18 3 18 6 41 7 50 0 9 5 1 11 -18 8 -28 6 -37 -8 -50z
m234 13 c8 -6 -10 -64 -19 -64 -5 0 -9 2 -9 4 0 2 -7 20 -15 40 l-15 37 27 -7
c16 -4 30 -8 31 -10z m-204 -70 c3 -9 6 -23 6 -32 0 -13 -3 -12 -15 4 -16 21
-19 44 -6 44 5 0 12 -7 15 -16z m-31 -68 c9 -13 13 -26 10 -30 -9 -8 -43 24
-43 41 0 20 16 15 33 -11z m57 -72 c0 -8 -4 -12 -10 -9 -5 3 -10 10 -10 16 0
5 5 9 10 9 6 0 10 -7 10 -16z m-26 -46 c8 -13 7 -21 -1 -29 -14 -14 -59 23
-48 41 9 15 35 9 49 -12z m-65 -87 c-30 -24 -33 -21 -24 25 l6 37 21 -21 21
-21 -24 -20z m111 17 c0 -16 -3 -19 -11 -11 -6 6 -8 16 -5 22 11 17 16 13 16
-11z m-29 -47 c20 -18 19 -18 -14 -44 -34 -26 -35 -26 -52 -6 -18 18 -17 20 5
44 28 30 35 31 61 6z m1577 -673 c-32 -20 -38 -8 -38 67 l0 75 -95 0 -95 0 0
-104 0 -103 -31 -7 c-64 -12 -60 -34 -57 296 l3 303 160 60 160 61 3 -320 c2
-249 -1 -321 -10 -328z m-748 282 c0 -199 -4 -360 -9 -360 -5 0 -21 3 -37 6
l-29 5 3 105 3 105 -93 -3 -93 -3 3 -62 c2 -34 1 -71 -3 -82 -5 -18 -9 -19
-43 -7 l-37 13 0 254 0 254 155 67 c85 37 161 68 168 68 9 0 12 -79 12 -360z
m390 -5 l0 -365 -30 0 -30 0 0 115 0 115 -95 0 -95 0 0 -115 0 -115 -49 0
c-27 0 -51 4 -53 10 -1 5 -2 140 0 299 l3 289 162 65 c89 36 168 66 175 66 9
1 12 -78 12 -364z m-1156 271 l7 -38 -29 20 c-53 38 -56 47 -25 72 31 24 34
21 47 -54z m-161 47 c14 -17 13 -19 -9 -36 l-24 -18 0 36 c0 39 9 44 33 18z
m98 -82 c43 -39 44 -40 24 -55 -29 -22 -41 -20 -92 16 l-46 31 29 24 c16 12
32 23 35 23 4 0 26 -18 50 -39z m-92 -70 l43 -29 -56 -38 c-31 -20 -58 -35
-60 -33 -5 6 17 129 23 129 3 0 26 -13 50 -29z m181 -25 c0 -13 3 -32 7 -42 6
-15 1 -14 -28 6 -19 13 -36 25 -38 27 -7 5 32 32 47 33 6 0 12 -11 12 -24z
m-54 -60 l35 -24 -58 -45 c-52 -41 -60 -45 -78 -33 -11 7 -30 19 -42 27 -13 8
-23 17 -23 21 0 10 102 76 118 77 7 1 29 -10 48 -23z m82 -98 c6 -24 14 -65
18 -91 l6 -48 -73 47 c-41 25 -75 48 -77 49 -4 4 101 85 109 85 4 0 11 -19 17
-42z m-238 -14 l40 -27 -56 -44 c-32 -24 -58 -42 -60 -40 -7 7 19 137 28 137
4 0 26 -12 48 -26z m150 -99 l64 -40 -68 -3 c-37 -2 -95 -2 -129 0 l-62 3 59
43 c33 23 62 41 66 40 3 -2 34 -21 70 -43z m690 -125 c0 -50 -4 -80 -11 -80
-5 0 -30 5 -55 11 l-44 11 0 69 0 69 55 0 55 0 0 -80z m398 -17 l-3 -98 -50 0
-50 0 -3 98 -3 97 56 0 56 0 -3 -97z m382 32 l0 -64 -52 -16 c-28 -8 -53 -15
-55 -15 -2 0 -3 36 -3 80 l0 80 55 0 55 0 0 -65z m803 39 c13 -13 -87 -253
-112 -269 -21 -13 -176 74 -242 136 -46 44 -100 119 -93 130 6 10 437 13 447
3z m-2103 -22 c0 -17 -58 -89 -101 -126 -52 -44 -124 -87 -196 -115 l-53 -21
-29 58 c-33 66 -81 185 -81 201 0 8 72 11 230 11 127 0 230 -4 230 -8z m1607
-150 l-2 -147 -32 -3 -33 -3 0 140 0 140 27 15 c16 8 31 12 35 10 4 -3 6 -71
5 -152z m-1502 126 c25 -11 25 -11 25 -145 l0 -133 -35 0 -35 0 0 145 c0 85 4
145 10 145 5 0 21 -5 35 -12z m1405 -149 l0 -130 -37 3 -38 3 -3 107 -3 108
33 20 c18 11 36 20 41 20 4 0 7 -59 7 -131z m-1490 -4 c0 -118 -1 -125 -20
-125 -19 0 -20 7 -20 101 0 80 4 105 18 124 9 14 18 25 20 25 1 0 2 -56 2
-125z m185 111 l35 -15 0 -110 0 -111 -40 0 -40 0 0 125 c0 69 2 125 5 125 3
0 21 -7 40 -14z m1466 -18 c15 -19 18 -40 19 -121 0 -96 0 -98 -22 -95 -22 3
-23 7 -25 121 -1 64 1 117 4 117 2 0 13 -10 24 -22z m-1355 -18 c11 0 14 -20
14 -100 l0 -100 -30 0 -30 0 0 106 c0 93 2 105 16 100 9 -3 22 -6 30 -6z
m1084 -95 l0 -105 -30 0 -30 0 0 95 c0 90 1 96 23 105 12 5 25 9 30 9 4 1 7
-46 7 -104z m-992 69 c21 -6 22 -12 22 -90 l0 -84 -35 0 -35 0 0 90 c0 94 1
96 48 84z m910 -81 l-3 -88 -33 0 -34 0 0 80 c0 75 1 80 24 86 49 14 49 14 46
-78z m-1368 -13 l0 -80 -30 0 c-30 0 -30 0 -30 59 0 52 3 62 26 80 15 12 28
21 30 21 2 0 4 -36 4 -80z m551 70 c5 0 9 -34 9 -75 0 -73 -1 -75 -25 -75 -25
0 -25 1 -25 81 0 70 2 80 16 75 9 -3 20 -6 25 -6z m719 -52 c0 -71 -9 -98 -30
-98 -20 0 -30 27 -30 82 0 52 9 68 36 68 22 0 24 -4 24 -52z m538 33 c18 -16
22 -29 22 -75 0 -56 0 -56 -30 -56 l-30 0 0 75 c0 41 3 75 8 75 4 -1 17 -9 30
-19z m-1160 -63 l3 -68 -31 0 -30 0 0 71 0 70 28 -3 c26 -3 27 -5 30 -70z
m537 1 c0 -62 -1 -64 -27 -67 l-28 -3 0 65 c0 53 3 65 18 69 32 8 37 0 37 -64z
m-447 51 c8 0 12 -19 12 -60 l0 -60 -35 0 -35 0 0 66 c0 64 1 66 23 60 12 -3
28 -6 35 -6z m100 -62 l3 -58 -31 0 -30 0 0 61 c0 60 0 60 28 57 26 -3 27 -6
30 -60z m157 1 c0 -48 -2 -54 -22 -57 -21 -3 -23 0 -23 51 0 53 9 69 35 63 6
-2 10 -27 10 -57z m103 4 c-3 -57 -3 -58 -35 -61 l-33 -3 0 60 0 61 35 0 36 0
-3 -57z m-178 -8 c0 -52 -1 -55 -25 -55 -24 0 -25 3 -25 55 0 52 1 55 25 55
24 0 25 -3 25 -55z m-1010 -10 c0 -43 -1 -45 -30 -45 -27 0 -30 3 -30 29 0 20
8 35 22 45 33 24 38 20 38 -29z m2010 -15 c0 -27 -3 -30 -30 -30 -29 0 -30 2
-30 45 l0 46 30 -16 c23 -12 30 -22 30 -45z m-2100 -10 c0 -17 -7 -20 -47 -20
-50 0 -50 8 0 27 44 16 47 16 47 -7z m2182 3 c26 -8 11 -23 -23 -23 -23 0 -29
4 -29 21 0 16 4 19 18 14 9 -4 25 -10 34 -12z m-62 -124 c0 -14 -227 -242
-257 -258 -22 -11 -23 -10 -23 29 0 29 4 40 15 40 11 0 15 12 15 45 0 25 -4
45 -10 45 -5 0 -10 13 -10 29 0 37 -31 61 -77 61 -42 0 -77 -33 -70 -66 3 -16
0 -24 -9 -24 -10 0 -14 -14 -14 -45 l0 -45 -590 0 -590 0 0 45 c0 31 -4 45
-14 45 -9 0 -12 8 -9 24 6 32 -31 66 -72 66 -44 0 -75 -25 -75 -61 0 -19 -5
-29 -15 -29 -24 0 -20 -67 5 -82 17 -11 20 -24 20 -75 0 -35 -2 -63 -6 -63 -3
0 -33 19 -66 42 -68 45 -197 166 -260 240 l-40 48 1076 0 c789 0 1076 -3 1076
-11z m-1679 -55 c11 -14 10 -18 -6 -30 -21 -15 -35 -17 -59 -8 -16 6 -22 35
-9 47 12 13 61 7 74 -9z m1376 0 c4 -11 -1 -22 -12 -30 -24 -18 -36 -18 -60 0
-16 12 -17 16 -6 30 18 21 70 21 78 0z m-1347 -89 c0 -13 -12 -15 -67 -13 -42
2 -68 8 -71 16 -3 9 15 12 67 12 57 0 71 -3 71 -15z m1378 3 c-3 -8 -29 -14
-71 -16 -55 -2 -67 0 -67 13 0 12 14 15 71 15 52 0 70 -3 67 -12z m-1410 -142
c1 -53 -1 -96 -5 -96 -14 1 -88 50 -75 50 8 0 12 20 12 68 0 38 3 71 6 75 3 3
18 4 32 3 27 -3 27 -3 30 -100z m1372 40 c0 -47 -3 -53 -35 -74 l-35 -22 0 74
c0 70 2 75 23 78 40 7 47 -2 47 -56z m-100 -46 l0 -71 -87 -41 c-49 -22 -107
-43 -130 -45 -24 -3 -43 -9 -43 -14 0 -20 -187 -57 -330 -65 -112 -7 -282 7
-365 30 l-50 14 53 1 c39 1 52 5 52 16 0 12 -13 15 -60 15 -47 0 -60 -3 -60
-15 0 -8 -1 -15 -3 -15 -7 0 -144 49 -179 64 l-38 16 0 90 0 90 620 0 620 0 0
-70z"/>
<path d="M2021 3521 c-15 -16 -33 -49 -41 -72 -7 -24 -16 -48 -20 -52 -4 -4
-26 1 -51 12 -53 25 -127 28 -135 6 -10 -25 3 -59 41 -106 l35 -44 -22 -15
c-80 -54 -108 -98 -80 -126 13 -13 32 -15 98 -12 l82 4 4 -55 c8 -112 54 -152
101 -89 14 18 31 52 38 76 13 46 24 50 69 27 47 -24 113 -30 129 -11 18 22 8
54 -35 110 l-36 48 22 15 c132 92 118 153 -31 138 l-66 -6 -6 54 c-6 61 -28
111 -53 121 -10 4 -25 -4 -43 -23z m60 -57 c14 -61 11 -114 -5 -114 -8 0 -21
-2 -29 -5 -7 -3 -24 3 -37 13 -23 18 -23 19 -6 68 21 63 45 99 58 86 5 -5 14
-27 19 -48z m-158 -94 c38 -18 37 -55 -4 -76 -30 -15 -32 -15 -56 8 -39 36
-65 77 -59 93 4 12 11 12 48 1 24 -7 55 -19 71 -26z m352 -31 c9 -14 -25 -50
-73 -77 l-39 -22 -22 24 c-32 33 -25 69 14 77 49 11 113 10 120 -2z m-220 -45
c36 -24 36 -86 0 -102 -34 -16 -46 -15 -73 6 -20 15 -23 24 -17 53 6 33 13 39
63 58 1 1 14 -6 27 -15z m-120 -43 c-3 -6 -11 -8 -17 -5 -6 4 -5 9 3 15 16 10
23 4 14 -10z m-28 -33 c13 -12 23 -32 23 -45 0 -13 -1 -23 -2 -23 -2 0 -28 -4
-60 -9 -63 -11 -98 -5 -98 15 0 14 87 83 104 84 6 0 20 -10 33 -22z m223 12
c0 -5 -4 -10 -10 -10 -5 0 -10 5 -10 10 0 6 5 10 10 10 6 0 10 -4 10 -10z m83
-79 c20 -26 37 -53 37 -60 0 -17 -32 -13 -94 10 -49 19 -56 25 -56 49 0 18 7
31 23 38 39 19 52 13 90 -37z m-169 -26 c17 -13 17 -16 2 -62 -17 -52 -42 -93
-56 -93 -25 0 -42 153 -17 163 23 10 52 6 71 -8z"/>
<path d="M2002 3268 c-26 -26 1 -65 38 -53 32 10 20 65 -15 65 -6 0 -16 -5
-23 -12z"/>
<path d="M1790 1325 c0 -12 13 -15 60 -15 47 0 60 3 60 15 0 12 -13 15 -60 15
-47 0 -60 -3 -60 -15z"/>
<path d="M2010 1325 c0 -12 13 -15 60 -15 47 0 60 3 60 15 0 12 -13 15 -60 15
-47 0 -60 -3 -60 -15z"/>
<path d="M2230 1325 c0 -12 13 -15 60 -15 47 0 60 3 60 15 0 12 -13 15 -60 15
-47 0 -60 -3 -60 -15z"/>
<path d="M2450 1325 c0 -13 11 -15 57 -13 81 4 85 28 4 28 -48 0 -61 -3 -61
-15z"/>
<path d="M2670 1325 c0 -13 11 -15 57 -13 81 4 85 28 4 28 -48 0 -61 -3 -61
-15z"/>
<path d="M2887 1334 c-12 -12 4 -24 34 -24 19 0 29 5 29 15 0 15 -50 22 -63 9z"/>
<path d="M1906 1245 c5 -11 21 -15 60 -15 41 0 54 4 54 15 0 12 -13 15 -60 15
-49 0 -58 -3 -54 -15z"/>
<path d="M2100 1245 c0 -12 13 -15 60 -15 47 0 60 3 60 15 0 12 -13 15 -60 15
-47 0 -60 -3 -60 -15z"/>
<path d="M2300 1245 c0 -12 13 -15 60 -15 47 0 60 3 60 15 0 12 -13 15 -60 15
-47 0 -60 -3 -60 -15z"/>
<path d="M2500 1245 c0 -12 13 -15 60 -15 47 0 60 3 60 15 0 12 -13 15 -60 15
-47 0 -60 -3 -60 -15z"/>
<path d="M2700 1245 c0 -12 13 -15 60 -15 47 0 60 3 60 15 0 12 -13 15 -60 15
-47 0 -60 -3 -60 -15z"/>
<path d="M2170 1155 c0 -12 13 -15 60 -15 47 0 60 3 60 15 0 12 -13 15 -60 15
-47 0 -60 -3 -60 -15z"/>
<path d="M2360 1155 c0 -12 13 -15 60 -15 47 0 60 3 60 15 0 12 -13 15 -60 15
-47 0 -60 -3 -60 -15z"/>
<path d="M2550 1155 c0 -12 13 -15 60 -15 47 0 60 3 60 15 0 12 -13 15 -60 15
-47 0 -60 -3 -60 -15z"/>
<path d="M1096 3671 c-16 -18 -18 -30 -12 -93 l7 -73 -38 38 c-39 37 -39 38
-58 17 -10 -11 -16 -22 -14 -23 2 -2 45 -40 95 -85 89 -79 92 -81 109 -62 16
18 15 20 -19 50 -20 18 -36 41 -36 51 0 18 5 19 53 14 28 -4 62 -8 74 -11 15
-3 27 3 38 18 15 22 14 23 -12 29 -16 4 -49 7 -75 8 -68 2 -78 8 -79 50 -1 20
-4 49 -8 65 l-6 28 -19 -21z"/>
<path d="M3565 3609 c-22 -68 -35 -91 -67 -119 -40 -35 -40 -35 -20 -53 19
-18 21 -17 56 14 26 23 59 37 120 53 l84 21 -18 22 -18 23 -56 -20 c-31 -10
-56 -17 -56 -15 0 2 10 29 22 60 l21 56 -20 21 -21 20 -27 -83z"/>
<path d="M630 2750 c0 -13 9 -22 28 -26 76 -17 77 -25 8 -43 -31 -7 -45 -17
-49 -32 -6 -24 6 -24 95 2 47 13 48 13 87 -19 47 -38 47 -38 54 -12 4 16 -4
27 -36 48 l-41 27 47 3 c39 3 47 6 47 23 0 10 -6 19 -12 19 -7 0 -58 7 -112
15 -123 19 -116 19 -116 -5z"/>
<path d="M3830 2752 c0 -21 28 -42 65 -50 l40 -8 -44 -24 c-43 -25 -43 -25
-37 -69 3 -24 6 -66 6 -92 0 -42 3 -49 20 -49 14 0 20 7 20 24 0 24 3 25 100
31 91 7 100 9 100 27 0 19 -6 20 -100 16 -55 -2 -100 -1 -101 2 -3 24 -8 43
-13 47 -12 12 101 73 147 79 41 6 47 10 47 30 0 24 -4 25 -83 9 -10 -2 -48 5
-85 16 -75 21 -82 22 -82 11z"/>
<path d="M610 2570 c0 -18 7 -20 69 -20 39 0 72 -4 75 -8 2 -4 -29 -18 -70
-31 -65 -20 -74 -26 -74 -47 0 -23 3 -24 69 -24 37 0 88 -3 113 -6 40 -6 46
-4 51 15 4 15 0 21 -11 22 -10 1 -24 2 -32 3 -8 2 -37 4 -65 5 l-50 2 80 27
c63 21 81 32 83 48 3 20 -3 21 -89 27 -142 11 -149 10 -149 -13z"/>
<path d="M3860 2421 c0 -16 11 -19 83 -24 146 -12 157 -11 157 18 l0 25 -120
0 c-110 0 -120 -2 -120 -19z"/>
<path d="M636 2379 c-32 -25 -37 -86 -8 -112 33 -30 192 -18 214 15 15 24 9
84 -10 101 -29 27 -161 24 -196 -4z m179 -49 c0 -20 -6 -25 -40 -32 -22 -5
-60 -8 -85 -6 -40 3 -45 6 -45 28 0 30 27 39 110 37 57 -2 60 -3 60 -27z"/>
<path d="M4054 2314 l-7 -36 -98 7 c-95 7 -99 6 -99 -13 0 -17 9 -21 60 -26
33 -3 87 -9 120 -12 l60 -6 0 45 c0 25 3 52 6 61 4 11 0 16 -14 16 -16 0 -23
-8 -28 -36z"/>
<path d="M733 2207 c-51 -23 -95 -45 -98 -49 -4 -3 -4 -16 0 -29 7 -20 12 -21
77 -17 78 6 78 1 -4 -32 -59 -23 -63 -26 -52 -54 5 -13 25 -16 113 -16 109 0
138 7 128 32 -4 12 -22 14 -86 10 -45 -2 -81 -2 -81 0 0 3 34 18 75 34 56 22
75 33 75 47 0 17 -7 19 -85 16 -47 -2 -85 -2 -85 1 0 3 34 18 76 34 54 21 74
33 72 45 -5 26 -28 22 -125 -22z"/>
<path d="M3834 2164 c-4 -14 -3 -29 2 -34 5 -5 54 -29 109 -53 96 -43 100 -44
108 -24 4 11 6 21 5 21 -2 1 -15 7 -30 14 -23 9 -26 15 -19 34 6 16 18 24 40
26 23 2 31 8 31 23 0 18 -8 19 -120 19 l-120 0 -6 -26z m146 -21 c-1 -27 -17
-30 -60 -12 l-45 18 53 0 c28 1 52 -2 52 -6z"/>
<path d="M3805 2030 c-24 -27 -24 -79 0 -96 29 -22 67 -16 109 16 44 33 58 36
75 16 20 -23 2 -48 -29 -41 -22 5 -28 2 -33 -14 -9 -37 54 -43 84 -8 26 31 25
82 -3 101 -34 24 -70 19 -116 -15 -44 -32 -76 -33 -70 -2 2 9 14 20 28 23 14
3 26 14 28 23 5 25 -50 23 -73 -3z"/>
<path d="M793 1967 c-50 -18 -95 -35 -98 -39 -4 -4 1 -29 10 -57 13 -39 21
-51 37 -51 17 0 19 4 13 28 -14 53 -13 55 78 86 62 22 87 35 85 46 -5 24 -27
21 -125 -13z"/>
<path d="M3734 1843 c-15 -31 -23 -58 -18 -60 5 -2 54 -23 109 -47 94 -41 114
-43 115 -13 0 4 -20 16 -45 27 -49 21 -54 30 -29 54 19 19 16 19 62 1 34 -15
38 -15 49 1 7 10 13 21 13 25 0 8 -50 19 -95 22 -17 1 -38 12 -48 25 -12 15
-29 22 -52 22 -30 0 -35 -5 -61 -57z m80 11 c10 -4 16 -18 16 -35 0 -32 -23
-39 -54 -16 -15 11 -17 17 -7 35 12 23 20 26 45 16z"/>
<path d="M865 1832 c-44 -21 -90 -42 -102 -47 l-21 -10 26 -57 c21 -46 30 -56
42 -48 12 8 12 14 1 45 -15 42 -15 41 21 50 23 6 29 3 39 -19 12 -25 29 -33
42 -20 3 4 -1 20 -9 37 -13 24 -14 31 -2 38 26 17 46 9 57 -21 10 -31 18 -35
37 -22 12 8 -29 112 -43 112 -5 0 -44 -17 -88 -38z"/>
<path d="M3667 1711 l-27 -50 99 -55 c54 -31 102 -56 105 -56 12 0 58 91 52
105 -9 24 -21 18 -41 -19 -18 -34 -19 -34 -47 -20 -33 17 -34 22 -12 53 13 17
14 25 4 34 -9 9 -17 5 -34 -17 -18 -21 -29 -27 -45 -21 -25 8 -27 23 -5 53 16
23 12 42 -9 42 -7 0 -24 -22 -40 -49z"/>
<path d="M915 1684 c-49 -30 -91 -60 -93 -67 -5 -22 56 -97 79 -97 54 0 169
79 169 117 0 22 -41 95 -55 99 -5 2 -50 -22 -100 -52z m105 -14 c16 -30 -1
-52 -64 -84 -46 -23 -59 -26 -71 -16 -26 22 -16 37 53 78 37 23 68 41 69 42 1
0 7 -9 13 -20z"/>
<path d="M3620 1629 c-12 -21 -7 -28 53 -86 35 -35 63 -63 60 -63 -3 0 -39 16
-80 35 -86 40 -89 41 -101 18 -9 -14 5 -23 91 -60 115 -49 127 -51 145 -23 11
18 3 29 -70 107 -45 49 -83 90 -84 91 -1 2 -8 -6 -14 -19z"/>
<path d="M1039 1551 c-47 -30 -93 -76 -101 -101 -8 -23 20 -70 42 -70 12 0 17
-5 14 -14 -12 -31 19 -25 65 11 l48 39 -22 28 c-24 30 -50 27 -40 -4 7 -21
-27 -45 -51 -36 -34 13 -5 62 66 109 49 34 94 12 64 -31 -12 -17 -12 -22 1
-32 21 -18 45 4 45 42 0 31 -47 88 -72 88 -8 0 -34 -13 -59 -29z"/>
<path d="M3511 1486 c-10 -12 5 -28 80 -91 83 -68 94 -75 108 -61 8 9 13 17
10 19 -2 2 -43 36 -90 75 -48 40 -89 72 -91 72 -3 0 -11 -6 -17 -14z"/>
<path d="M1121 1379 l-83 -81 43 -44 c33 -34 46 -41 56 -32 11 9 9 16 -12 38
-31 32 -31 40 -1 62 23 16 24 16 46 -7 18 -19 26 -22 37 -13 11 9 9 16 -12 38
l-25 27 20 18 c20 18 21 18 51 -11 25 -23 32 -26 39 -14 6 10 -1 26 -24 54
-18 22 -37 41 -42 43 -5 1 -47 -34 -93 -78z"/>
<path d="M3461 1427 c-9 -12 0 -24 44 -62 31 -26 54 -50 51 -52 -3 -3 -37 10
-76 28 -66 30 -72 31 -88 16 -15 -16 -11 -22 63 -97 44 -44 85 -80 92 -80 31
0 21 26 -28 76 -29 30 -50 54 -46 54 4 0 39 -14 77 -32 65 -28 73 -30 87 -15
14 14 8 22 -67 94 -45 43 -85 79 -89 81 -5 1 -13 -4 -20 -11z"/>
<path d="M3340 1305 c-9 -11 1 -28 44 -82 60 -74 72 -113 33 -113 -17 0 -38
19 -77 70 -54 68 -72 81 -85 59 -13 -20 120 -179 149 -179 23 0 86 59 86 80 0
10 -25 49 -55 87 -30 37 -55 71 -55 74 0 14 -29 17 -40 4z"/>
<path d="M1346 1272 c-3 -5 -4 -17 0 -25 3 -8 -2 -17 -10 -20 -23 -9 -20 -27
4 -27 11 0 20 -7 20 -15 0 -8 7 -15 15 -15 8 0 15 7 15 16 0 11 6 15 19 11 23
-6 36 19 15 27 -10 4 -13 13 -9 25 8 26 -11 36 -24 14 -9 -17 -11 -17 -24 1
-9 12 -16 15 -21 8z"/>
<path d="M1490 1073 c-30 -53 -56 -99 -57 -102 -5 -10 96 -62 107 -56 19 12
10 33 -20 45 -16 7 -30 15 -30 19 0 3 20 41 45 83 25 43 45 81 45 87 0 7 -24
22 -33 21 -1 0 -27 -44 -57 -97z"/>
<path d="M3106 1142 c-3 -5 -3 -17 0 -26 4 -11 1 -16 -10 -16 -9 0 -16 -7 -16
-15 0 -8 9 -15 20 -15 14 0 20 -7 20 -22 1 -23 1 -23 16 -3 8 11 22 20 31 20
9 0 18 6 20 13 3 6 -2 12 -11 12 -18 0 -21 16 -5 26 8 4 8 9 -1 18 -8 8 -13 7
-20 -4 -8 -13 -11 -12 -23 4 -9 12 -16 15 -21 8z"/>
<path d="M1650 1053 c-40 -85 -70 -153 -70 -162 0 -12 97 -54 109 -47 19 12
12 25 -21 42 -18 9 -34 18 -36 19 -5 5 21 55 29 55 4 0 20 -5 34 -12 22 -10
28 -9 35 3 7 10 0 18 -25 32 -32 16 -34 19 -22 40 6 12 13 23 14 25 0 2 15 -4
32 -13 31 -15 51 -13 51 5 0 8 -90 60 -104 60 -2 0 -14 -21 -26 -47z"/>
<path d="M2893 1042 c-23 -9 -44 -20 -47 -23 -3 -3 5 -32 17 -65 13 -32 32
-80 41 -106 18 -50 22 -53 45 -39 12 8 11 15 -3 51 -17 43 -15 60 9 60 46 0
60 76 20 115 -28 29 -27 29 -82 7z m59 -48 c11 -22 10 -28 -7 -40 -27 -20 -32
-18 -44 17 -14 40 -14 37 7 42 30 8 32 7 44 -19z"/>
<path d="M1773 928 c-59 -99 -60 -103 -40 -111 12 -5 23 -4 25 1 9 28 28 41
50 35 19 -4 23 -11 19 -30 -4 -23 14 -53 32 -53 8 0 31 171 31 224 0 21 -20
35 -50 36 -3 0 -33 -46 -67 -102z m71 0 c-8 -52 -7 -50 -28 -42 -14 6 -14 10
6 45 12 21 23 39 25 39 2 0 0 -19 -3 -42z"/>
<path d="M2781 1001 c-12 -8 -9 -27 19 -120 19 -61 36 -111 39 -111 3 0 12 4
20 9 11 7 10 18 -3 65 -9 31 -23 81 -32 111 -16 57 -19 61 -43 46z"/>
<path d="M1928 878 c-14 -62 -24 -115 -22 -117 8 -8 99 -21 115 -16 29 9 52
74 53 145 1 61 -1 65 -27 78 -15 7 -42 16 -60 19 l-33 5 -26 -114z m102 57
c10 -12 10 -28 1 -72 -6 -31 -16 -62 -22 -69 -11 -13 -59 -20 -59 -9 0 6 29
132 36 153 5 17 29 15 44 -3z"/>
<path d="M2712 981 c-9 -5 -13 -23 -10 -52 3 -41 1 -44 -24 -47 -23 -3 -28 1
-34 25 -13 58 -14 61 -34 56 -24 -6 -24 5 4 -123 20 -93 25 -105 45 -108 24
-4 24 -3 4 84 -3 17 1 23 23 28 32 8 39 0 48 -55 5 -30 11 -39 26 -39 11 0 20
3 20 8 1 21 -44 232 -49 232 -3 0 -12 -4 -19 -9z"/>
<path d="M2111 873 c-18 -145 -17 -149 27 -157 66 -11 82 -8 82 14 0 16 -7 20
-34 20 -41 0 -49 9 -40 45 6 24 11 26 40 23 29 -3 44 6 44 27 0 2 -18 6 -41
10 -30 5 -39 11 -35 22 3 8 6 19 6 24 0 5 18 9 40 9 33 0 40 3 40 20 0 16 -7
20 -37 20 -21 0 -47 3 -59 6 -20 5 -22 0 -33 -83z"/>
<path d="M2451 937 c-11 -14 -15 -38 -13 -69 1 -9 25 -30 53 -47 39 -25 50
-36 47 -54 -4 -30 -42 -30 -46 1 -3 16 -10 22 -29 22 -22 0 -24 -3 -18 -27 10
-43 24 -53 69 -53 51 0 66 13 66 60 0 38 -16 58 -72 93 -33 20 -38 57 -9 57
11 0 23 -9 26 -20 7 -22 45 -28 45 -7 0 7 -7 23 -16 35 -18 25 -84 31 -103 9z"/>
<path d="M2260 825 c0 -63 2 -115 4 -115 2 0 11 -3 20 -6 13 -5 16 3 16 51 0
56 0 56 27 53 25 -3 29 -8 36 -55 7 -45 12 -53 31 -53 19 0 21 4 18 43 -2 23
-8 52 -14 65 -9 17 -9 25 0 34 17 17 15 64 -4 82 -10 11 -34 16 -75 16 l-59 0
0 -115z m104 69 c9 -22 -11 -54 -34 -54 -16 0 -20 7 -20 35 0 30 3 35 24 35
13 0 27 -7 30 -16z"/>
</g>
</svg>
